<?xml version="1.0" encoding="utf-8"?>
<!-- Generator: Adobe Illustrator 16.0.0, SVG Export Plug-In . SVG Version: 6.00 Build 0)  -->
<!DOCTYPE svg PUBLIC "-//W3C//DTD SVG 1.1//EN" "http://www.w3.org/Graphics/SVG/1.1/DTD/svg11.dtd">
<svg version="1.1" id="CMJN" xmlns="http://www.w3.org/2000/svg" xmlns:xlink="http://www.w3.org/1999/xlink" x="0px" y="0px"
	 width="621.893px" height="250.951px" viewBox="0 0 621.893 250.951" enable-background="new 0 0 621.893 250.951"
	 xml:space="preserve">
<g>
	<path fill="#FFFFFF" d="M496.877,100.39l-12.333-1.167l-8.313,4.146l-10.188-1.854l8.75-3.854l-9.715-2.031l-9.883,3.428
		l7.639,1.854l-6.711,2.578l-7.747-1.953l6.791-2.479l-10.942-3.261l9.344-3.141l-9.188-2.969l-9.768,2.53l7.136,2.733l-7.269,2.21
		l-7.598-2.953l7.65-1.997l-10.546-4.621l9.076-2.451l-9.958-4.771l-9.028,2.081l-8.681-5.357l8.75-1.875
		c0,0-4.839-3.009-6.703-4.281c-2.453,0.375-10.623,1.304-15.359,1.474c-9.292,0.333-17.979,0.351-29.375-1.167
		c-16.752-2.231-41.332-7.868-68.042-25.875c25.75,23.667,62.288,44.595,99.167,55.021c34.553,9.768,65.902,12.241,100.375,9.021
		c0.284-0.027,0.571-0.057,0.857-0.085l5.789-3.853l-11.625-0.625L496.877,100.39z M378.823,79.872l-3.019-2.063l4.073-0.418
		l2.673,1.94L378.823,79.872z M393.714,87.526l-4.978-3.136l5.736-1.195l4.842,3.029L393.714,87.526z M396.18,79.044l-4.275-3.077
		l5.382-0.788l4.152,2.747L396.18,79.044z M411.711,96.902l-5.857-2.722l5.621-1.272l5.473,2.633L411.711,96.902z M412.879,87.615
		l-6.189-3.412l7.38-1.732l6.559,3.482L412.879,87.615z M431.085,103.415l-4.822-1.617l4.271-1.452l4.691,1.637L431.085,103.415z
		 M477.773,106.828l-6.854-0.917l5.138-2.507l6.737,0.923L477.773,106.828z"/>
	<path fill="#FFFFFF" d="M289.237,53.385c0,0,10.293,9.569,28.59,21.964c0.091,0.062-3.64,1.98-8.679,4.4
		c-5.983,2.874-13.828,6.484-24.688,10.328c-9.222,3.264-20.457,6.833-34.266,9.766c-16.604,3.526-36.884,6.155-61.713,5.859
		C188.481,105.703,249.585,107.12,289.237,53.385z"/>
	<polygon fill="#FFFFFF" points="426.226,79.703 417.601,75.203 424.914,73.593 434.273,77.828 	"/>
	<polygon fill="#FFFFFF" points="446.19,87.995 436.669,84.328 445.46,82.12 456.127,85.411 	"/>
	<polygon fill="#FFFFFF" points="466.669,93.724 457.502,91.307 467.066,88.087 476.982,90.015 	"/>
	<polygon fill="#FFFFFF" points="487.377,97.078 477.773,95.745 487.732,91.453 497.232,92.265 	"/>
	<polygon fill="#FFFFFF" points="509.835,98.39 499.107,98.015 508.725,92.663 518.669,92.474 	"/>
	<polygon fill="#FFFFFF" points="531.857,96.682 522.085,97.286 529.232,91.786 538.46,90.765 	"/>
	<path fill="#FFFFFF" d="M518.701,100.751c-5.101,0.14-11.053,0.139-11.053,0.139l-6.758,4.518l11.997,0.002L518.701,100.751z"/>
	<g>
		<path fill="#FFFFFF" d="M538.74,99.05c-2.394,0.307-5.057,0.609-7.996,0.891l-4.92,4.478c3.618-0.8,7.059-1.651,10.223-2.491
			L538.74,99.05z"/>
		<polygon fill="#FFFFFF" points="554.582,96.267 554.585,96.265 554.583,96.266 		"/>
	</g>
	<polygon fill="#FFFFFF" points="553.44,92.307 546.752,93.515 551.46,88.536 558.023,87.036 	"/>
	<g>
		<polygon fill="#FFFFFF" points="429.492,71.843 424.991,69.769 429.244,68.937 433.82,70.937 		"/>
		<polygon fill="#FFFFFF" points="448.252,80.828 441.232,78.515 448.907,76.943 455.804,78.875 		"/>
		<polygon fill="#FFFFFF" points="468.091,85.728 460.795,84.188 469.69,81.87 476.648,82.953 		"/>
		<polygon fill="#FFFFFF" points="489.209,88.396 481.502,87.682 490.627,84.349 497.96,84.661 		"/>
		<polygon fill="#FFFFFF" points="510.335,88.578 502.648,88.765 510.94,84.474 518.398,83.953 		"/>
		<polygon fill="#FFFFFF" points="532.232,86.37 524.232,87.453 532.085,82.265 539.315,80.974 		"/>
		<polygon fill="#FFFFFF" points="552.94,81.89 545.372,83.793 551.62,78.118 558.377,76.161 		"/>
		<polygon fill="#FFFFFF" points="572.876,74.699 567.803,76.528 571.805,71.989 576.523,70.036 		"/>
	</g>
</g>
<g>
	<g>
		<path fill="#FFFFFF" d="M45.369,122.708h8.95v19.686c3.836-1.524,7.946-2.289,12.334-2.289c16.055,0,24.085,7.693,24.085,23.078
			c0,16.668-8.433,25-25.296,25c-7.287,0-13.977-0.656-20.073-1.968V122.708z M54.319,179.804c2.933,0.886,6.494,1.327,10.688,1.327
			c11.285,0,16.93-6.088,16.93-18.269c0-10.289-5.111-15.43-15.333-15.43c-4.642,0-8.738,0.824-12.285,2.473V179.804z"/>
		<path fill="#FFFFFF" d="M100.848,188.182v-48.078h6.046l1.596,6.136c4.449-4.089,9.8-6.136,16.06-6.136v7.053
			c-6.064,0-10.98,2.029-14.752,6.09v34.935H100.848z"/>
		<path fill="#FFFFFF" d="M129.097,164.142c0-16.026,8.06-24.038,24.182-24.038c16.123,0,24.185,8.012,24.185,24.038
			c0,15.997-8.063,23.994-24.185,23.994C137.223,188.136,129.16,180.139,129.097,164.142z M153.279,181.314
			c10.156,0,15.237-5.786,15.237-17.354c0-11.326-5.081-16.987-15.237-16.987c-10.155,0-15.234,5.662-15.234,16.987
			C138.045,175.528,143.124,181.314,153.279,181.314z"/>
		<path fill="#FFFFFF" d="M185.153,173.208c0-9.858,6.871-14.787,20.606-14.787c5.062,0,9.478,0.306,13.254,0.915v-4.532
			c0-5.22-4.563-7.831-13.689-7.831c-5.224,0-10.578,0.763-16.058,2.289v-6.869c5.48-1.524,10.834-2.289,16.058-2.289
			c15.089,0,22.635,5.13,22.635,15.385v32.693h-4.545l-3.581-3.39c-4.419,2.262-9.609,3.39-15.573,3.39
			C191.523,188.182,185.153,183.191,185.153,173.208z M205.759,165.29c-7.771,0-11.658,2.592-11.658,7.782
			c0,5.494,3.389,8.243,10.159,8.243c6.191,0,11.107-1.25,14.753-3.756v-11.353C215.463,165.594,211.047,165.29,205.759,165.29z"/>
		<path fill="#FFFFFF" d="M283.535,185.297c-6.161,1.925-13.753,2.885-22.783,2.885c-15.122,0-22.682-8.332-22.682-25
			c0-15.384,8.028-23.078,24.084-23.078c4.385,0,8.53,0.765,12.433,2.289v-19.686h8.948V185.297z M274.587,149.905
			c-3.612-1.649-7.739-2.473-12.383-2.473c-10.222,0-15.333,5.141-15.333,15.43c0,12.181,5.111,18.269,15.333,18.269
			c4.645,0,8.771-0.595,12.383-1.786V149.905z"/>
		<path fill="#FFFFFF" d="M296.063,142.074c6.737-1.313,13.703-1.97,20.891-1.97c16.285,0,24.427,7.619,24.427,22.848
			c0,16.821-8.189,25.229-24.572,25.229c-4.06,0-7.996-0.762-11.798-2.29v19.69h-8.948V142.074z M305.011,178.383
			c3.512,1.65,7.429,2.474,11.752,2.474c10.543,0,15.814-5.999,15.814-17.995c0-10.47-5.24-15.705-15.717-15.705
			c-4.516,0-8.466,0.365-11.85,1.1V178.383z"/>
		<path fill="#FFFFFF" d="M392.216,166.571h-34.194c0,9.828,6.546,14.743,19.636,14.743c4.482,0,8.964-0.458,13.447-1.377v6.871
			c-4.483,0.916-9.931,1.373-16.35,1.373c-17.121,0-25.682-8.194-25.682-24.587c0-15.66,8.108-23.491,24.328-23.491
			C388.944,140.104,395.215,148.925,392.216,166.571z M358.022,159.519h26.02c0.453-8.423-3.579-12.637-12.091-12.637
			C363.244,146.881,358.603,151.095,358.022,159.519z"/>
		<path fill="#FFFFFF" d="M401.843,173.208c0-9.858,6.867-14.787,20.604-14.787c5.063,0,9.48,0.306,13.253,0.915v-4.532
			c0-5.22-4.564-7.831-13.688-7.831c-5.223,0-10.578,0.763-16.061,2.289v-6.869c5.482-1.524,10.838-2.289,16.061-2.289
			c15.092,0,22.636,5.13,22.636,15.385v32.693h-4.549l-3.577-3.39c-4.418,2.262-9.609,3.39-15.574,3.39
			C408.211,188.182,401.843,183.191,401.843,173.208z M422.447,165.29c-7.772,0-11.655,2.592-11.655,7.782
			c0,5.494,3.386,8.243,10.156,8.243c6.19,0,11.106-1.25,14.752-3.756v-11.353C432.151,165.594,427.735,165.29,422.447,165.29z"/>
		<path fill="#FFFFFF" d="M472.566,161.862c7.785-2.817,18.721-8.22,27.126-18.07l-6.478-3.658
			c-8.787,10.071-21.449,14.665-27.09,16.303v-5.159v-7.417v-21.144h-8.948v65.464h8.948v-21.093l24.714,21.093h11.457
			L472.566,161.862z"/>
	</g>
</g>
</svg>
